Coordinates
version=1
nRows=10
nColumns=63
inDegrees=yes

Units are S.I. units (second, meters, Newtons, ...)
If the header above contains a line with 'inDegrees', this indicates whether rotational values are in degrees (yes) or radians (no).

endheader
time	pelvis_tilt	pelvis_list	pelvis_rotation	pelvis_tx	pelvis_ty	pelvis_tz	hip_flexion_r	hip_adduction_r	hip_rotation_r	knee_angle_r	knee_angle_r_beta	ankle_angle_r	subtalar_angle_r	mtp_angle_r	hip_flexion_l	hip_adduction_l	hip_rotation_l	knee_angle_l	knee_angle_l_beta	ankle_angle_l	subtalar_angle_l	mtp_angle_l	L5_S1_Flex_Ext	L5_S1_Lat_Bending	L5_S1_axial_rotation	L4_L5_Flex_Ext	L4_L5_Lat_Bending	L4_L5_axial_rotation	L3_L4_Flex_Ext	L3_L4_Lat_Bending	L3_L4_axial_rotation	L2_L3_Flex_Ext	L2_L3_Lat_Bending	L2_L3_axial_rotation	L1_L2_Flex_Ext	L1_L2_Lat_Bending	L1_L2_axial_rotation	L1_T12_Flex_Ext	L1_T12_Lat_Bending	L1_T12_axial_rotation	Abs_r3	Abs_r2	Abs_r1	Abs_t1	Abs_t2	neck_flexion	neck_bending	neck_rotation	arm_flex_r	arm_add_r	arm_rot_r	elbow_flex_r	pro_sup_r	wrist_flex_r	wrist_dev_r	arm_flex_l	arm_add_l	arm_rot_l	elbow_flex_l	pro_sup_l	wrist_flex_l	wrist_dev_l
      0.96078431	      6.46418960	     -5.05384208	     92.84549105	      0.12275587	      0.62607405	      0.80286701	     -7.85456861	      4.57845305	     24.34167815	      1.17645158	      0.02053295	     17.90506808	    -15.62114709	      0.00000000	     -4.19887463	     -6.58926782	    -10.46392242	      7.50702314	      0.13102227	     28.38960713	      0.91650260	      0.00000000	     -0.06793819	     -0.21823740	      1.08699531	     -0.12616802	     -0.29025574	      1.15493252	     -0.11161565	     -0.53062241	      1.15493252	     -0.07764656	     -0.53062241	      0.95112090	     -0.06308740	     -0.44502970	      0.88318369	     -0.03881988	     -0.33804973	      0.81524648	     -0.48527571	     -2.46874509	      6.04554182	      0.00000000	      0.00000000	     17.67329698	      8.59695495	    -20.99235873	     70.65976875	    -37.47094412	      3.80773834	     86.74735203	     83.73845612	     16.55695157	    -20.40847568	      6.17942106	    -11.17999706	     49.80647147	     12.21443557	     72.41778022	     -0.66298131	     -6.83733995
      0.98039216	      6.38723817	     -5.21231327	     92.73035398	      0.12270856	      0.62539345	      0.80267459	     -7.72466602	      4.44245595	     24.55855444	      1.08204661	      0.01888528	     18.01933701	    -15.87923119	      0.00000000	     -4.06756733	     -6.38101252	     -9.27059221	      7.47560269	      0.13047388	     28.01498670	     -0.98931185	      0.00000000	     -0.03516028	     -0.23832916	      1.18812079	     -0.06529615	     -0.31697779	      1.26237834	     -0.05776482	     -0.57947352	      1.26237834	     -0.04018468	     -0.57947352	      1.03960569	     -0.03264984	     -0.48600083	      0.96534814	     -0.02009058	     -0.36917187	      0.89109059	     -0.25114636	     -2.69602714	      6.60797139	      0.00000000	      0.00000000	     18.05290065	      7.70770981	    -21.90708847	     71.06039635	    -37.46502698	      4.11643501	     84.87537911	     86.50031012	     18.59631421	    -21.01775806	      7.67472138	    -12.10112003	     67.12638045	     13.20503591	     55.99585321	     -3.76359269	     -8.85156813
      1.00000000	      6.44615759	     -5.44734036	     92.54673542	      0.12264304	      0.62472082	      0.80277195	     -7.48440252	      4.42539678	     24.73628052	      0.99845548	      0.01742634	     18.09126229	    -15.84581477	      0.00000000	     -3.81572602	     -6.39399471	     -9.48408105	      7.52453186	      0.13132786	     28.01821930	     -1.10870272	      0.00000000	     -0.00289407	     -0.24357459	      1.32169445	     -0.00537457	     -0.32395420	      1.40430036	     -0.00475467	     -0.59222725	      1.40430036	     -0.00330763	     -0.59222725	      1.15648265	     -0.00268743	     -0.49669729	      1.07387674	     -0.00165367	     -0.37729703	      0.99127084	     -0.02067204	     -2.75536442	      7.35086803	      0.00000000	      0.00000000	     18.77109745	      6.36384576	    -22.98091649	     70.96763342	    -38.07668350	      4.78981903	     83.85146837	     87.68823367	     18.27528187	    -21.27548844	      8.05802217	    -12.03867092	     67.30705542	     13.84034328	     56.14704954	     -4.75546440	     -9.78526315
      1.01960784	      6.55881729	     -5.59372987	     92.11539595	      0.12262391	      0.62434134	      0.80278475	     -7.32512414	      4.43688932	     25.18980948	      0.95403967	      0.01665113	     18.08850361	    -15.83849613	      0.00000000	     -3.72753785	     -6.43002781	     -9.77123533	      7.52893035	      0.13140462	     27.98579719	     -1.45905673	      0.00000000	      0.02149492	     -0.24087559	      1.52350001	      0.03991821	     -0.32036453	      1.61871876	      0.03531400	     -0.58566490	      1.61871876	      0.02456654	     -0.58566490	      1.33306251	      0.01996018	     -0.49119350	      1.23784376	      0.01228219	     -0.37311628	      1.14262501	      0.15353603	     -2.72483281	      8.47325003	      0.00000000	      0.00000000	     19.21313499	      4.99944925	    -24.21793769	     70.58003456	    -39.02647599	      5.49788327	     83.24204518	     88.18088191	     16.91079256	    -21.41317564	      8.41605694	    -11.85623285	     67.87809500	     14.41902961	     56.73067106	     -6.84668313	    -10.47140441
      1.03921569	      6.58213026	     -5.77364942	     91.77661441	      0.12259067	      0.62408749	      0.80311784	     -7.11966663	      4.37405223	     25.63000466	      0.90093672	      0.01572431	     18.02583149	    -15.92248229	      0.00000000	     -3.56447513	     -6.38217681	     -9.98729492	      7.50988127	      0.13107215	     27.87357874	     -1.85546801	      0.00000000	      0.04941370	     -0.24773645	      1.69365367	      0.09176618	     -0.32948948	      1.79950702	      0.08118177	     -0.60234641	      1.79950702	      0.05647492	     -0.60234641	      1.48194696	      0.04588556	     -0.50518417	      1.37609360	      0.02823499	     -0.38374376	      1.27024025	      0.35295712	     -2.80244429	      9.41959360	      0.00000000	      0.00000000	     19.71429309	      4.25938156	    -24.37280539	     69.96391721	    -39.74368648	      5.91681619	     83.01737587	     88.33720875	     15.06247311	    -21.11220648	      8.79976358	    -11.81577781	     68.40924089	     15.08492666	     57.39914038	     -8.21469764	    -10.28012733
      1.05882353	      6.62580185	     -5.78286261	     91.89717724	      0.12207474	      0.62406062	      0.80364476	     -7.09479259	      4.40415767	     25.65419005	      0.86637168	      0.01512104	     18.01624189	    -15.91698678	      0.00000000	     -3.47707856	     -6.41648196	     -9.97872405	      7.48957573	      0.13071776	     27.86708396	     -1.85892523	      0.00000000	      0.05242491	     -0.25722139	      1.72803469	      0.09735830	     -0.34210445	      1.83603686	      0.08612889	     -0.62540808	      1.83603686	      0.05991643	     -0.62540808	      1.51203036	      0.04868177	     -0.52452585	      1.40402819	      0.02995559	     -0.39843593	      1.29602602	      0.37446590	     -2.90973979	      9.61081056	      0.00000000	      0.00000000	     19.85574972	      4.07874427	    -24.21080289	     69.46761471	    -39.87130851	      5.94847604	     82.48596451	     88.35048312	     14.97186764	    -21.00548923	      9.09690152	    -11.67177298	     68.37229212	     15.21541209	     57.40407868	     -8.23903707	    -10.31551986
      1.07843137	      6.55523782	     -5.85029951	     91.27142353	      0.12258585	      0.62387432	      0.80429472	     -6.99080378	      4.24498220	     26.39437734	      0.83797360	      0.01462540	     18.01282604	    -16.08740899	      0.00000000	     -3.49667005	     -6.26321817	    -10.24968421	      7.41201882	      0.12936413	     27.87048794	     -2.37195135	      0.00000000	      0.06265396	     -0.27391379	      2.01627849	      0.11635467	     -0.36430535	      2.14229589	      0.10293419	     -0.66599400	      2.14229589	      0.07160721	     -0.66599400	      1.76424368	      0.05818047	     -0.55856501	      1.63822627	      0.03580047	     -0.42429247	      1.51220887	      0.44753099	     -3.09856761	     11.21393607	      0.00000000	      0.00000000	     19.94545217	      3.48371818	    -22.94096659	     68.03865915	    -40.69705859	      5.13334700	     83.25123592	     88.22593810	     12.62569144	    -20.56174329	      9.75573500	    -11.60104755	     68.66124277	     15.76157086	     58.31844061	     -8.05658900	     -9.19397474
      1.09803922	      6.57894164	     -5.76285776	     91.31331115	      0.12239570	      0.62377919	      0.80486281	     -7.07425281	      4.26904539	     26.47418189	      0.83233489	      0.01452698	     18.00511117	    -16.05196499	      0.00000000	     -3.44878339	     -6.31067006	    -10.20864941	      7.57728738	      0.13224861	     28.03431933	     -2.43623792	      0.00000000	      0.05512691	     -0.28318486	      2.11791969	      0.10237619	     -0.37663587	      2.25028968	      0.09056800	     -0.68853568	      2.25028968	      0.06300455	     -0.68853568	      1.85317973	      0.05119085	     -0.57747058	      1.72080975	      0.03149952	     -0.43865335	      1.58843977	      0.39376601	     -3.20344382	     11.77923396	      0.00000000	      0.00000000	     19.65472389	      2.82894149	    -21.52288521	     66.96385460	    -40.87816293	      4.28176770	     83.43566702	     87.96576891	     12.35914990	    -20.61535730	     10.15474496	    -11.39604625	     68.51955026	     15.87091800	     58.30354341	     -7.86529093	     -8.98748034
      1.11764706	      6.49289282	     -5.69922122	     90.88526810	      0.12281244	      0.62372875	      0.80576270	     -7.08313892	      4.12157481	     26.91147126	      0.84272031	      0.01470824	     18.06596330	    -15.97651928	      0.00000000	     -3.53851139	     -6.17737869	    -10.35918734	      7.54419806	      0.13167110	     27.96742043	     -2.75571068	      0.00000000	      0.04920189	     -0.30109107	      2.29465139	      0.09137284	     -0.40045113	      2.43806710	      0.08083379	     -0.73207284	      2.43806710	      0.05623285	     -0.73207284	      2.00781997	      0.04568888	     -0.61398492	      1.86440426	      0.02811396	     -0.46639007	      1.72098854	      0.35144422	     -3.40600245	     12.76216265	      0.00000000	      0.00000000	     19.11150596	      2.42718977	    -19.53857449	     65.75604684	    -40.68430686	      2.95875074	     84.04869096	     87.75473568	     11.58032367	    -19.23506135	     10.73719886	    -11.28712115	     68.30165438	     16.10728614	     58.46027622	     -6.32131002	     -7.50125348
      1.13725490	      6.41674577	     -5.57730022	     90.66715471	      0.12301355	      0.62363722	      0.80632010	     -7.17709569	      4.01711942	     27.07976301	      0.84828275	      0.01480533	     18.18424533	    -15.96130601	      0.00000000	     -3.64492839	     -6.07661089	    -10.39632684	      7.57819876	      0.13226452	     28.02060928	     -2.93379550	      0.00000000	      0.04216397	     -0.31439714	      2.39674889	      0.07830270	     -0.41814819	      2.54654569	      0.06927118	     -0.76442520	      2.54654569	      0.04818920	     -0.76442520	      2.09715527	      0.03915346	     -0.64111865	      1.94735847	      0.02409249	     -0.48700117	      1.79756166	      0.30117300	     -3.55652331	     13.32999828	      0.00000000	      0.00000000	     18.29399465	      1.77431774	    -17.89443571	     64.75539181	    -40.11601340	      1.76985029	     84.46977658	     87.37845647	     11.43389564	    -18.12698380	     11.06611627	    -11.14509155	     67.97874172	     16.21519554	     58.45985779	     -5.68385967	     -6.79246977
